<?xml version="1.0" encoding="UTF-8" standalone="no"?>
<!-- Created with Inkscape (http://www.inkscape.org/) -->
<svg id="svg4704" xmlns:rdf="http://www.w3.org/1999/02/22-rdf-syntax-ns#" xmlns="http://www.w3.org/2000/svg" height="392.9mm" width="10.945mm" version="1.1" xmlns:cc="http://creativecommons.org/ns#" xmlns:dc="http://purl.org/dc/elements/1.1/" viewBox="0 0 38.782765 1392.148">
 <metadata id="metadata4709">
  <rdf:RDF>
   <cc:Work rdf:about="">
    <dc:format>image/svg+xml</dc:format>
    <dc:type rdf:resource="http://purl.org/dc/dcmitype/StillImage"/>
    <dc:title/>
   </cc:Work>
  </rdf:RDF>
 </metadata>
 <g id="layer1" transform="translate(567.96 209.93)">
  <g id="g5276">
   <g id="g5543">
    <path id="path4277-6-1" style="color-rendering:auto;color:#000000;isolation:auto;mix-blend-mode:normal;shape-rendering:auto;solid-color:#000000;image-rendering:auto" d="m-548.49 689.52c0-2.5219 0.054-5.0526 0.2515-7.5662 0.2085-2.6527 0.5773-5.2865 1.2122-7.8712 1.2363-5.0339 3.3484-9.8024 5.5006-14.518 2.1522-4.7155 4.2643-9.4841 5.5007-14.518 1.2364-5.0338 1.4636-10.254 1.4636-15.437 0.001-71.828-0.00079-97.657-0.00079-169.49 0-5.1835-0.2272-10.404-1.4636-15.437-1.2364-5.0339-3.3485-9.8024-5.5007-14.518s-4.2643-9.4841-5.5006-14.518c-1.2364-5.0338-1.4637-10.254-1.4637-15.437" stroke="#4040bf" stroke-width="1.5" fill="none"/>
    <path id="path4219-7" d="m-562.49 1182.2v-492.69c0-5.1835 0.2273-10.404 1.4637-15.437 1.2363-5.0339 3.3484-9.8024 5.5006-14.518 2.1522-4.7155 4.2643-9.4841 5.5007-14.518 1.2364-5.0338 1.4636-10.254 1.4636-15.437-0.004-80.393 0.003-319.07 0.003-399.47" fill-opacity="0" stroke="#bf40bf" stroke-width="1.5"/>
    <g>
     <path id="path4324-2" style="color-rendering:auto;color:#000000;isolation:auto;mix-blend-mode:normal;shape-rendering:auto;solid-color:#000000;image-rendering:auto" d="m-562.49-209.93v840.13c0 5.1835 0.2273 10.404 1.4637 15.437 1.2363 5.0339 3.3484 9.8024 5.5006 14.518 2.1522 4.7155 4.2643 9.4841 5.5007 14.518 1.2364 5.0338 1.4636 10.254 1.4636 15.437v53.023" stroke="#1a1a1a" stroke-width="1.5" fill="none"/>
     <g fill-rule="evenodd">
      <circle id="path4349-5" style="color-rendering:auto;color:#000000;isolation:auto;mix-blend-mode:normal;shape-rendering:auto;solid-color:#000000;image-rendering:auto" cx="-534.43" cy="458.4" r="5.2527" fill="#4040bf"/>
      <circle id="path4349-3-7" style="color-rendering:auto;color:#000000;isolation:auto;mix-blend-mode:normal;shape-rendering:auto;solid-color:#000000;image-rendering:auto" cx="-534.5" cy="515.46" r="5.2527" fill="#4040bf"/>
      <circle id="path4349-34-96" style="color-rendering:auto;color:#000000;isolation:auto;mix-blend-mode:normal;shape-rendering:auto;solid-color:#000000;image-rendering:auto" cx="-548.6" cy="572.47" r="5.2527" fill="#bf40bf"/>
      <circle id="path4349-34-9-4" style="color-rendering:auto;color:#000000;isolation:auto;mix-blend-mode:normal;shape-rendering:auto;solid-color:#000000;image-rendering:auto" cx="-562.71" cy="629.43" r="5.2527" fill="#1a1a1a"/>
      <circle id="path4349-34-3-3" style="color-rendering:auto;color:#000000;isolation:auto;mix-blend-mode:normal;shape-rendering:auto;solid-color:#000000;image-rendering:auto" cx="-548.57" cy="686.4" r="5.2527" fill="#1a1a1a"/>
      <circle id="path4349-3-7-1" style="color-rendering:auto;color:#000000;isolation:auto;mix-blend-mode:normal;shape-rendering:auto;solid-color:#000000;image-rendering:auto" cx="-534.74" cy="458.68" r="5.2527" fill="#4040bf"/>
     </g>
     <path id="path4277-6-1-2" style="color-rendering:auto;color:#000000;isolation:auto;mix-blend-mode:normal;shape-rendering:auto;solid-color:#000000;image-rendering:auto" d="m-562.55 349.55c0-2.5219 0.054-5.0526 0.2515-7.5662 0.2085-2.6527 0.5773-5.2865 1.2122-7.8712 1.2363-5.0339 3.3484-9.8024 5.5006-14.518 2.1522-4.7155 4.2643-9.4841 5.5007-14.518 1.2364-5.0338 1.4636-10.254 1.4636-15.437" stroke="#1a1a1a" stroke-width="1.5" fill="none"/>
     <circle id="path4349-34-96-0" style="color-rendering:auto;color:#000000;isolation:auto;mix-blend-mode:normal;shape-rendering:auto;solid-color:#000000;image-rendering:auto" cx="-548.71" fill-rule="evenodd" cy="401.4" r="5.2527" fill="#bf40bf"/>
     <circle id="path4349-3-7-3" style="color-rendering:auto;color:#000000;isolation:auto;mix-blend-mode:normal;shape-rendering:auto;solid-color:#000000;image-rendering:auto" cx="-562.5" fill-rule="evenodd" cy="354.68" r="5.2527" fill="#1a1a1a"/>
     <path id="path4277-6-1-2-4" style="color-rendering:auto;color:#000000;isolation:auto;mix-blend-mode:normal;shape-rendering:auto;solid-color:#000000;image-rendering:auto" d="m-562.55 172.97c0 2.5219 0.054 5.0526 0.2515 7.5662 0.2085 2.6527 0.5773 5.2865 1.2122 7.8712 1.2363 5.0339 3.3484 9.8024 5.5006 14.518 2.1522 4.7155 4.2643 9.4841 5.5007 14.518 1.2364 5.0338 1.4636 10.254 1.4636 15.437" stroke="#bf40bf" stroke-width="1.5" fill="none"/>
     <path id="path4277-6-1-2-1" style="color-rendering:auto;color:#000000;isolation:auto;mix-blend-mode:normal;shape-rendering:auto;solid-color:#000000;image-rendering:auto" d="m-562.55 801.37c0-2.5219 0.054-5.0526 0.2515-7.5662 0.2085-2.6527 0.5773-5.2865 1.2122-7.8712 1.2363-5.0339 3.3484-9.8024 5.5006-14.518 2.1522-4.7155 4.2643-9.4841 5.5007-14.518 1.2364-5.0338 1.4636-10.254 1.4636-15.437" stroke="#1a1a1a" stroke-width="1.5" fill="none"/>
     <circle id="path4349-34-0-1" style="color-rendering:auto;color:#000000;isolation:auto;mix-blend-mode:normal;shape-rendering:auto;solid-color:#000000;image-rendering:auto" cx="-548.64" fill-rule="evenodd" cy="743.5" r="5.2527" fill="#1a1a1a"/>
     <g fill-rule="evenodd" fill="#bf40bf">
      <circle id="path4349-34-0-6-6" style="color-rendering:auto;color:#000000;isolation:auto;mix-blend-mode:normal;shape-rendering:auto;solid-color:#000000;image-rendering:auto" cx="-562.6" cy="800.47" r="5.2527"/>
      <circle id="path4349-3-7-1-6-2" style="color-rendering:auto;color:#000000;isolation:auto;mix-blend-mode:normal;shape-rendering:auto;solid-color:#000000;image-rendering:auto" cx="-548.62" cy="230.65" r="5.2527"/>
      <circle id="path4349-3-7-1-6" style="color-rendering:auto;color:#000000;isolation:auto;mix-blend-mode:normal;shape-rendering:auto;solid-color:#000000;image-rendering:auto" cx="-548.74" cy="287.65" r="5.2527"/>
      <circle id="path4349-3-7-1-6-2-4" style="color-rendering:auto;color:#000000;isolation:auto;mix-blend-mode:normal;shape-rendering:auto;solid-color:#000000;image-rendering:auto" cx="-562.53" cy="173.65" r="5.2527"/>
      <circle id="path4349-3-7-1-6-8" style="color-rendering:auto;color:#000000;isolation:auto;mix-blend-mode:normal;shape-rendering:auto;solid-color:#000000;image-rendering:auto" cx="-548.53" cy="230.65" r="5.2527"/>
     </g>
    </g>
   </g>
  </g>
 </g>
</svg>
